<mxfile host="app.diagrams.net" modified="2024-07-03T18:19:58.298Z" agent="Mozilla/5.0 (Windows NT 10.0; Win64; x64) AppleWebKit/537.36 (KHTML, like Gecko) Chrome/126.0.0.0 Safari/537.36" etag="mfomaAqGLiby0fY7qWtA" version="24.5.4" type="device" pages="2">
  <diagram name="control_task_diagram" id="nf5VE_m6qTDjbwXGg9CD">
    <mxGraphModel dx="1136" dy="579" grid="1" gridSize="10" guides="1" tooltips="1" connect="1" arrows="1" fold="1" page="1" pageScale="1" pageWidth="827" pageHeight="1169" math="0" shadow="0">
      <root>
        <mxCell id="0" />
        <mxCell id="1" parent="0" />
        <mxCell id="Six69tqx89a4ZBIKrwq_-1" value="joystick_read_task" style="ellipse;whiteSpace=wrap;html=1;aspect=fixed;" vertex="1" parent="1">
          <mxGeometry x="290" y="210" width="110" height="110" as="geometry" />
        </mxCell>
        <mxCell id="Six69tqx89a4ZBIKrwq_-2" value="button_read_task" style="ellipse;whiteSpace=wrap;html=1;aspect=fixed;" vertex="1" parent="1">
          <mxGeometry x="290" y="400" width="110" height="110" as="geometry" />
        </mxCell>
        <mxCell id="Six69tqx89a4ZBIKrwq_-3" value="com_task" style="ellipse;whiteSpace=wrap;html=1;aspect=fixed;" vertex="1" parent="1">
          <mxGeometry x="612" y="307" width="110" height="110" as="geometry" />
        </mxCell>
        <mxCell id="Six69tqx89a4ZBIKrwq_-4" value="" style="shape=partialRectangle;whiteSpace=wrap;html=1;left=0;right=0;fillColor=none;" vertex="1" parent="1">
          <mxGeometry x="458" y="332" width="120" height="60" as="geometry" />
        </mxCell>
        <mxCell id="Six69tqx89a4ZBIKrwq_-5" value="" style="line;strokeWidth=4;direction=south;html=1;perimeter=backbonePerimeter;points=[];outlineConnect=0;" vertex="1" parent="1">
          <mxGeometry x="464" y="342" width="10" height="40" as="geometry" />
        </mxCell>
        <mxCell id="Six69tqx89a4ZBIKrwq_-6" value="" style="line;strokeWidth=4;direction=south;html=1;perimeter=backbonePerimeter;points=[];outlineConnect=0;" vertex="1" parent="1">
          <mxGeometry x="564" y="342" width="10" height="40" as="geometry" />
        </mxCell>
        <mxCell id="Six69tqx89a4ZBIKrwq_-7" value="com_queue" style="text;html=1;strokeColor=none;fillColor=none;align=center;verticalAlign=middle;whiteSpace=wrap;rounded=0;" vertex="1" parent="1">
          <mxGeometry x="488" y="347" width="60" height="30" as="geometry" />
        </mxCell>
        <mxCell id="Six69tqx89a4ZBIKrwq_-8" value="" style="line;strokeWidth=4;direction=south;html=1;perimeter=backbonePerimeter;points=[];outlineConnect=0;" vertex="1" parent="1">
          <mxGeometry x="478" y="342" width="10" height="40" as="geometry" />
        </mxCell>
        <mxCell id="Six69tqx89a4ZBIKrwq_-9" value="" style="line;strokeWidth=4;direction=south;html=1;perimeter=backbonePerimeter;points=[];outlineConnect=0;" vertex="1" parent="1">
          <mxGeometry x="548" y="342" width="10" height="40" as="geometry" />
        </mxCell>
        <mxCell id="Six69tqx89a4ZBIKrwq_-10" value="" style="line;strokeWidth=4;direction=south;html=1;perimeter=backbonePerimeter;points=[];outlineConnect=0;" vertex="1" parent="1">
          <mxGeometry x="521" y="372" width="10" height="10" as="geometry" />
        </mxCell>
        <mxCell id="Six69tqx89a4ZBIKrwq_-11" value="" style="line;strokeWidth=4;direction=south;html=1;perimeter=backbonePerimeter;points=[];outlineConnect=0;" vertex="1" parent="1">
          <mxGeometry x="508" y="372" width="10" height="10" as="geometry" />
        </mxCell>
        <mxCell id="Six69tqx89a4ZBIKrwq_-12" value="" style="line;strokeWidth=4;direction=south;html=1;perimeter=backbonePerimeter;points=[];outlineConnect=0;" vertex="1" parent="1">
          <mxGeometry x="494" y="372" width="10" height="10" as="geometry" />
        </mxCell>
        <mxCell id="Six69tqx89a4ZBIKrwq_-13" value="" style="line;strokeWidth=4;direction=south;html=1;perimeter=backbonePerimeter;points=[];outlineConnect=0;" vertex="1" parent="1">
          <mxGeometry x="534" y="372" width="10" height="10" as="geometry" />
        </mxCell>
        <mxCell id="Six69tqx89a4ZBIKrwq_-14" value="" style="line;strokeWidth=4;direction=south;html=1;perimeter=backbonePerimeter;points=[];outlineConnect=0;" vertex="1" parent="1">
          <mxGeometry x="534" y="342" width="10" height="10" as="geometry" />
        </mxCell>
        <mxCell id="Six69tqx89a4ZBIKrwq_-15" value="" style="line;strokeWidth=4;direction=south;html=1;perimeter=backbonePerimeter;points=[];outlineConnect=0;" vertex="1" parent="1">
          <mxGeometry x="521" y="342" width="10" height="10" as="geometry" />
        </mxCell>
        <mxCell id="Six69tqx89a4ZBIKrwq_-16" value="" style="line;strokeWidth=4;direction=south;html=1;perimeter=backbonePerimeter;points=[];outlineConnect=0;" vertex="1" parent="1">
          <mxGeometry x="508" y="342" width="10" height="10" as="geometry" />
        </mxCell>
        <mxCell id="Six69tqx89a4ZBIKrwq_-17" value="" style="line;strokeWidth=4;direction=south;html=1;perimeter=backbonePerimeter;points=[];outlineConnect=0;" vertex="1" parent="1">
          <mxGeometry x="494" y="342" width="10" height="10" as="geometry" />
        </mxCell>
        <mxCell id="Six69tqx89a4ZBIKrwq_-18" value="" style="triangle;whiteSpace=wrap;html=1;fillColor=#000000;" vertex="1" parent="1">
          <mxGeometry x="451" y="309" width="20" height="20" as="geometry" />
        </mxCell>
        <mxCell id="Six69tqx89a4ZBIKrwq_-19" value="" style="endArrow=none;html=1;rounded=0;entryX=0;entryY=0.75;entryDx=0;entryDy=0;" edge="1" parent="1" target="Six69tqx89a4ZBIKrwq_-18">
          <mxGeometry width="50" height="50" relative="1" as="geometry">
            <mxPoint x="451" y="339" as="sourcePoint" />
            <mxPoint x="41" y="389" as="targetPoint" />
          </mxGeometry>
        </mxCell>
        <mxCell id="Six69tqx89a4ZBIKrwq_-20" value="" style="endArrow=classic;html=1;rounded=0;exitX=1;exitY=0.5;exitDx=0;exitDy=0;entryX=0;entryY=0.5;entryDx=0;entryDy=0;" edge="1" parent="1" source="Six69tqx89a4ZBIKrwq_-2" target="Six69tqx89a4ZBIKrwq_-4">
          <mxGeometry width="50" height="50" relative="1" as="geometry">
            <mxPoint x="390" y="460" as="sourcePoint" />
            <mxPoint x="440" y="410" as="targetPoint" />
            <Array as="points">
              <mxPoint x="400" y="362" />
            </Array>
          </mxGeometry>
        </mxCell>
        <mxCell id="Six69tqx89a4ZBIKrwq_-21" value="" style="endArrow=classic;html=1;rounded=0;exitX=1;exitY=0.5;exitDx=0;exitDy=0;entryX=0;entryY=0.5;entryDx=0;entryDy=0;" edge="1" parent="1" source="Six69tqx89a4ZBIKrwq_-1" target="Six69tqx89a4ZBIKrwq_-4">
          <mxGeometry width="50" height="50" relative="1" as="geometry">
            <mxPoint x="390" y="460" as="sourcePoint" />
            <mxPoint x="440" y="410" as="targetPoint" />
            <Array as="points">
              <mxPoint x="400" y="362" />
            </Array>
          </mxGeometry>
        </mxCell>
        <mxCell id="Six69tqx89a4ZBIKrwq_-22" value="" style="endArrow=classic;html=1;rounded=0;entryX=0;entryY=0.5;entryDx=0;entryDy=0;exitX=1;exitY=0.5;exitDx=0;exitDy=0;" edge="1" parent="1" source="Six69tqx89a4ZBIKrwq_-4" target="Six69tqx89a4ZBIKrwq_-3">
          <mxGeometry width="50" height="50" relative="1" as="geometry">
            <mxPoint x="360" y="450" as="sourcePoint" />
            <mxPoint x="410" y="400" as="targetPoint" />
          </mxGeometry>
        </mxCell>
      </root>
    </mxGraphModel>
  </diagram>
  <diagram id="xsKpexdiAl_yNwiaYDyf" name="robot_task_diagram">
    <mxGraphModel dx="1647" dy="839" grid="1" gridSize="10" guides="1" tooltips="1" connect="1" arrows="1" fold="1" page="1" pageScale="1" pageWidth="827" pageHeight="1169" math="0" shadow="0">
      <root>
        <mxCell id="0" />
        <mxCell id="1" parent="0" />
        <mxCell id="BB2MQhuAi7R2dTQpztXg-1" value="" style="shape=partialRectangle;whiteSpace=wrap;html=1;left=0;right=0;fillColor=none;" vertex="1" parent="1">
          <mxGeometry x="209" y="370" width="120" height="60" as="geometry" />
        </mxCell>
        <mxCell id="BB2MQhuAi7R2dTQpztXg-2" value="" style="line;strokeWidth=4;direction=south;html=1;perimeter=backbonePerimeter;points=[];outlineConnect=0;" vertex="1" parent="1">
          <mxGeometry x="215" y="380" width="10" height="40" as="geometry" />
        </mxCell>
        <mxCell id="BB2MQhuAi7R2dTQpztXg-3" value="" style="line;strokeWidth=4;direction=south;html=1;perimeter=backbonePerimeter;points=[];outlineConnect=0;" vertex="1" parent="1">
          <mxGeometry x="315" y="380" width="10" height="40" as="geometry" />
        </mxCell>
        <mxCell id="BB2MQhuAi7R2dTQpztXg-4" value="com_queue" style="text;html=1;strokeColor=none;fillColor=none;align=center;verticalAlign=middle;whiteSpace=wrap;rounded=0;" vertex="1" parent="1">
          <mxGeometry x="239" y="385" width="60" height="30" as="geometry" />
        </mxCell>
        <mxCell id="BB2MQhuAi7R2dTQpztXg-5" value="" style="line;strokeWidth=4;direction=south;html=1;perimeter=backbonePerimeter;points=[];outlineConnect=0;" vertex="1" parent="1">
          <mxGeometry x="229" y="380" width="10" height="40" as="geometry" />
        </mxCell>
        <mxCell id="BB2MQhuAi7R2dTQpztXg-6" value="" style="line;strokeWidth=4;direction=south;html=1;perimeter=backbonePerimeter;points=[];outlineConnect=0;" vertex="1" parent="1">
          <mxGeometry x="299" y="380" width="10" height="40" as="geometry" />
        </mxCell>
        <mxCell id="BB2MQhuAi7R2dTQpztXg-7" value="" style="line;strokeWidth=4;direction=south;html=1;perimeter=backbonePerimeter;points=[];outlineConnect=0;" vertex="1" parent="1">
          <mxGeometry x="272" y="410" width="10" height="10" as="geometry" />
        </mxCell>
        <mxCell id="BB2MQhuAi7R2dTQpztXg-8" value="" style="line;strokeWidth=4;direction=south;html=1;perimeter=backbonePerimeter;points=[];outlineConnect=0;" vertex="1" parent="1">
          <mxGeometry x="259" y="410" width="10" height="10" as="geometry" />
        </mxCell>
        <mxCell id="BB2MQhuAi7R2dTQpztXg-9" value="" style="line;strokeWidth=4;direction=south;html=1;perimeter=backbonePerimeter;points=[];outlineConnect=0;" vertex="1" parent="1">
          <mxGeometry x="245" y="410" width="10" height="10" as="geometry" />
        </mxCell>
        <mxCell id="BB2MQhuAi7R2dTQpztXg-10" value="" style="line;strokeWidth=4;direction=south;html=1;perimeter=backbonePerimeter;points=[];outlineConnect=0;" vertex="1" parent="1">
          <mxGeometry x="285" y="410" width="10" height="10" as="geometry" />
        </mxCell>
        <mxCell id="BB2MQhuAi7R2dTQpztXg-11" value="" style="line;strokeWidth=4;direction=south;html=1;perimeter=backbonePerimeter;points=[];outlineConnect=0;" vertex="1" parent="1">
          <mxGeometry x="285" y="380" width="10" height="10" as="geometry" />
        </mxCell>
        <mxCell id="BB2MQhuAi7R2dTQpztXg-12" value="" style="line;strokeWidth=4;direction=south;html=1;perimeter=backbonePerimeter;points=[];outlineConnect=0;" vertex="1" parent="1">
          <mxGeometry x="272" y="380" width="10" height="10" as="geometry" />
        </mxCell>
        <mxCell id="BB2MQhuAi7R2dTQpztXg-13" value="" style="line;strokeWidth=4;direction=south;html=1;perimeter=backbonePerimeter;points=[];outlineConnect=0;" vertex="1" parent="1">
          <mxGeometry x="259" y="380" width="10" height="10" as="geometry" />
        </mxCell>
        <mxCell id="BB2MQhuAi7R2dTQpztXg-14" value="" style="line;strokeWidth=4;direction=south;html=1;perimeter=backbonePerimeter;points=[];outlineConnect=0;" vertex="1" parent="1">
          <mxGeometry x="245" y="380" width="10" height="10" as="geometry" />
        </mxCell>
        <mxCell id="BB2MQhuAi7R2dTQpztXg-15" value="" style="triangle;whiteSpace=wrap;html=1;fillColor=#000000;" vertex="1" parent="1">
          <mxGeometry x="202" y="347" width="20" height="20" as="geometry" />
        </mxCell>
        <mxCell id="BB2MQhuAi7R2dTQpztXg-16" value="" style="endArrow=none;html=1;rounded=0;entryX=0;entryY=0.75;entryDx=0;entryDy=0;" edge="1" parent="1" target="BB2MQhuAi7R2dTQpztXg-15">
          <mxGeometry width="50" height="50" relative="1" as="geometry">
            <mxPoint x="202" y="377" as="sourcePoint" />
            <mxPoint x="-208" y="427" as="targetPoint" />
          </mxGeometry>
        </mxCell>
        <mxCell id="FwMMRwjk7z9BSofxBnza-1" value="com_task" style="ellipse;whiteSpace=wrap;html=1;aspect=fixed;" vertex="1" parent="1">
          <mxGeometry x="50" y="344" width="110" height="110" as="geometry" />
        </mxCell>
        <mxCell id="ScajvUw0fOYDPrXvx_VV-1" value="" style="endArrow=classic;html=1;rounded=0;exitX=1;exitY=0.5;exitDx=0;exitDy=0;entryX=0;entryY=0.5;entryDx=0;entryDy=0;" edge="1" parent="1" source="FwMMRwjk7z9BSofxBnza-1">
          <mxGeometry width="50" height="50" relative="1" as="geometry">
            <mxPoint x="160" y="401" as="sourcePoint" />
            <mxPoint x="209" y="399" as="targetPoint" />
          </mxGeometry>
        </mxCell>
        <mxCell id="ScajvUw0fOYDPrXvx_VV-2" value="interpreter_task" style="ellipse;whiteSpace=wrap;html=1;aspect=fixed;" vertex="1" parent="1">
          <mxGeometry x="380" y="345" width="110" height="110" as="geometry" />
        </mxCell>
        <mxCell id="ScajvUw0fOYDPrXvx_VV-3" value="" style="endArrow=classic;html=1;rounded=0;exitX=1;exitY=0.5;exitDx=0;exitDy=0;entryX=0;entryY=0.5;entryDx=0;entryDy=0;" edge="1" parent="1" source="BB2MQhuAi7R2dTQpztXg-1" target="ScajvUw0fOYDPrXvx_VV-2">
          <mxGeometry width="50" height="50" relative="1" as="geometry">
            <mxPoint x="390" y="460" as="sourcePoint" />
            <mxPoint x="440" y="410" as="targetPoint" />
          </mxGeometry>
        </mxCell>
        <mxCell id="ScajvUw0fOYDPrXvx_VV-4" value="" style="shape=partialRectangle;whiteSpace=wrap;html=1;left=0;right=0;fillColor=none;" vertex="1" parent="1">
          <mxGeometry x="583" y="251" width="120" height="60" as="geometry" />
        </mxCell>
        <mxCell id="ScajvUw0fOYDPrXvx_VV-5" value="" style="line;strokeWidth=4;direction=south;html=1;perimeter=backbonePerimeter;points=[];outlineConnect=0;" vertex="1" parent="1">
          <mxGeometry x="589" y="261" width="10" height="40" as="geometry" />
        </mxCell>
        <mxCell id="ScajvUw0fOYDPrXvx_VV-6" value="" style="line;strokeWidth=4;direction=south;html=1;perimeter=backbonePerimeter;points=[];outlineConnect=0;" vertex="1" parent="1">
          <mxGeometry x="689" y="261" width="10" height="40" as="geometry" />
        </mxCell>
        <mxCell id="ScajvUw0fOYDPrXvx_VV-7" value="spd_queue" style="text;html=1;strokeColor=none;fillColor=none;align=center;verticalAlign=middle;whiteSpace=wrap;rounded=0;" vertex="1" parent="1">
          <mxGeometry x="613" y="266" width="60" height="30" as="geometry" />
        </mxCell>
        <mxCell id="ScajvUw0fOYDPrXvx_VV-8" value="" style="line;strokeWidth=4;direction=south;html=1;perimeter=backbonePerimeter;points=[];outlineConnect=0;" vertex="1" parent="1">
          <mxGeometry x="603" y="261" width="10" height="40" as="geometry" />
        </mxCell>
        <mxCell id="ScajvUw0fOYDPrXvx_VV-9" value="" style="line;strokeWidth=4;direction=south;html=1;perimeter=backbonePerimeter;points=[];outlineConnect=0;" vertex="1" parent="1">
          <mxGeometry x="673" y="261" width="10" height="40" as="geometry" />
        </mxCell>
        <mxCell id="ScajvUw0fOYDPrXvx_VV-10" value="" style="line;strokeWidth=4;direction=south;html=1;perimeter=backbonePerimeter;points=[];outlineConnect=0;" vertex="1" parent="1">
          <mxGeometry x="646" y="291" width="10" height="10" as="geometry" />
        </mxCell>
        <mxCell id="ScajvUw0fOYDPrXvx_VV-11" value="" style="line;strokeWidth=4;direction=south;html=1;perimeter=backbonePerimeter;points=[];outlineConnect=0;" vertex="1" parent="1">
          <mxGeometry x="633" y="291" width="10" height="10" as="geometry" />
        </mxCell>
        <mxCell id="ScajvUw0fOYDPrXvx_VV-12" value="" style="line;strokeWidth=4;direction=south;html=1;perimeter=backbonePerimeter;points=[];outlineConnect=0;" vertex="1" parent="1">
          <mxGeometry x="619" y="291" width="10" height="10" as="geometry" />
        </mxCell>
        <mxCell id="ScajvUw0fOYDPrXvx_VV-13" value="" style="line;strokeWidth=4;direction=south;html=1;perimeter=backbonePerimeter;points=[];outlineConnect=0;" vertex="1" parent="1">
          <mxGeometry x="659" y="291" width="10" height="10" as="geometry" />
        </mxCell>
        <mxCell id="ScajvUw0fOYDPrXvx_VV-14" value="" style="line;strokeWidth=4;direction=south;html=1;perimeter=backbonePerimeter;points=[];outlineConnect=0;" vertex="1" parent="1">
          <mxGeometry x="659" y="261" width="10" height="10" as="geometry" />
        </mxCell>
        <mxCell id="ScajvUw0fOYDPrXvx_VV-15" value="" style="line;strokeWidth=4;direction=south;html=1;perimeter=backbonePerimeter;points=[];outlineConnect=0;" vertex="1" parent="1">
          <mxGeometry x="646" y="261" width="10" height="10" as="geometry" />
        </mxCell>
        <mxCell id="ScajvUw0fOYDPrXvx_VV-16" value="" style="line;strokeWidth=4;direction=south;html=1;perimeter=backbonePerimeter;points=[];outlineConnect=0;" vertex="1" parent="1">
          <mxGeometry x="633" y="261" width="10" height="10" as="geometry" />
        </mxCell>
        <mxCell id="ScajvUw0fOYDPrXvx_VV-17" value="" style="line;strokeWidth=4;direction=south;html=1;perimeter=backbonePerimeter;points=[];outlineConnect=0;" vertex="1" parent="1">
          <mxGeometry x="619" y="261" width="10" height="10" as="geometry" />
        </mxCell>
        <mxCell id="ScajvUw0fOYDPrXvx_VV-18" value="" style="triangle;whiteSpace=wrap;html=1;fillColor=#000000;" vertex="1" parent="1">
          <mxGeometry x="576" y="228" width="20" height="20" as="geometry" />
        </mxCell>
        <mxCell id="ScajvUw0fOYDPrXvx_VV-19" value="" style="endArrow=none;html=1;rounded=0;entryX=0;entryY=0.75;entryDx=0;entryDy=0;" edge="1" parent="1" target="ScajvUw0fOYDPrXvx_VV-18">
          <mxGeometry width="50" height="50" relative="1" as="geometry">
            <mxPoint x="576" y="258" as="sourcePoint" />
            <mxPoint x="166" y="308" as="targetPoint" />
          </mxGeometry>
        </mxCell>
        <mxCell id="ScajvUw0fOYDPrXvx_VV-20" value="" style="shape=partialRectangle;whiteSpace=wrap;html=1;left=0;right=0;fillColor=none;" vertex="1" parent="1">
          <mxGeometry x="582" y="491" width="120" height="60" as="geometry" />
        </mxCell>
        <mxCell id="ScajvUw0fOYDPrXvx_VV-21" value="" style="line;strokeWidth=4;direction=south;html=1;perimeter=backbonePerimeter;points=[];outlineConnect=0;" vertex="1" parent="1">
          <mxGeometry x="588" y="501" width="10" height="40" as="geometry" />
        </mxCell>
        <mxCell id="ScajvUw0fOYDPrXvx_VV-22" value="" style="line;strokeWidth=4;direction=south;html=1;perimeter=backbonePerimeter;points=[];outlineConnect=0;" vertex="1" parent="1">
          <mxGeometry x="688" y="501" width="10" height="40" as="geometry" />
        </mxCell>
        <mxCell id="ScajvUw0fOYDPrXvx_VV-23" value="pmp_queue" style="text;html=1;strokeColor=none;fillColor=none;align=center;verticalAlign=middle;whiteSpace=wrap;rounded=0;" vertex="1" parent="1">
          <mxGeometry x="612" y="506" width="60" height="30" as="geometry" />
        </mxCell>
        <mxCell id="ScajvUw0fOYDPrXvx_VV-24" value="" style="line;strokeWidth=4;direction=south;html=1;perimeter=backbonePerimeter;points=[];outlineConnect=0;" vertex="1" parent="1">
          <mxGeometry x="602" y="501" width="10" height="40" as="geometry" />
        </mxCell>
        <mxCell id="ScajvUw0fOYDPrXvx_VV-25" value="" style="line;strokeWidth=4;direction=south;html=1;perimeter=backbonePerimeter;points=[];outlineConnect=0;" vertex="1" parent="1">
          <mxGeometry x="672" y="501" width="10" height="40" as="geometry" />
        </mxCell>
        <mxCell id="ScajvUw0fOYDPrXvx_VV-26" value="" style="line;strokeWidth=4;direction=south;html=1;perimeter=backbonePerimeter;points=[];outlineConnect=0;" vertex="1" parent="1">
          <mxGeometry x="645" y="531" width="10" height="10" as="geometry" />
        </mxCell>
        <mxCell id="ScajvUw0fOYDPrXvx_VV-27" value="" style="line;strokeWidth=4;direction=south;html=1;perimeter=backbonePerimeter;points=[];outlineConnect=0;" vertex="1" parent="1">
          <mxGeometry x="632" y="531" width="10" height="10" as="geometry" />
        </mxCell>
        <mxCell id="ScajvUw0fOYDPrXvx_VV-28" value="" style="line;strokeWidth=4;direction=south;html=1;perimeter=backbonePerimeter;points=[];outlineConnect=0;" vertex="1" parent="1">
          <mxGeometry x="618" y="531" width="10" height="10" as="geometry" />
        </mxCell>
        <mxCell id="ScajvUw0fOYDPrXvx_VV-29" value="" style="line;strokeWidth=4;direction=south;html=1;perimeter=backbonePerimeter;points=[];outlineConnect=0;" vertex="1" parent="1">
          <mxGeometry x="658" y="531" width="10" height="10" as="geometry" />
        </mxCell>
        <mxCell id="ScajvUw0fOYDPrXvx_VV-30" value="" style="line;strokeWidth=4;direction=south;html=1;perimeter=backbonePerimeter;points=[];outlineConnect=0;" vertex="1" parent="1">
          <mxGeometry x="658" y="501" width="10" height="10" as="geometry" />
        </mxCell>
        <mxCell id="ScajvUw0fOYDPrXvx_VV-31" value="" style="line;strokeWidth=4;direction=south;html=1;perimeter=backbonePerimeter;points=[];outlineConnect=0;" vertex="1" parent="1">
          <mxGeometry x="645" y="501" width="10" height="10" as="geometry" />
        </mxCell>
        <mxCell id="ScajvUw0fOYDPrXvx_VV-32" value="" style="line;strokeWidth=4;direction=south;html=1;perimeter=backbonePerimeter;points=[];outlineConnect=0;" vertex="1" parent="1">
          <mxGeometry x="632" y="501" width="10" height="10" as="geometry" />
        </mxCell>
        <mxCell id="ScajvUw0fOYDPrXvx_VV-33" value="" style="line;strokeWidth=4;direction=south;html=1;perimeter=backbonePerimeter;points=[];outlineConnect=0;" vertex="1" parent="1">
          <mxGeometry x="618" y="501" width="10" height="10" as="geometry" />
        </mxCell>
        <mxCell id="ScajvUw0fOYDPrXvx_VV-34" value="" style="triangle;whiteSpace=wrap;html=1;fillColor=#000000;" vertex="1" parent="1">
          <mxGeometry x="575" y="468" width="20" height="20" as="geometry" />
        </mxCell>
        <mxCell id="ScajvUw0fOYDPrXvx_VV-35" value="" style="endArrow=none;html=1;rounded=0;entryX=0;entryY=0.75;entryDx=0;entryDy=0;" edge="1" parent="1" target="ScajvUw0fOYDPrXvx_VV-34">
          <mxGeometry width="50" height="50" relative="1" as="geometry">
            <mxPoint x="575" y="498" as="sourcePoint" />
            <mxPoint x="165" y="548" as="targetPoint" />
          </mxGeometry>
        </mxCell>
        <mxCell id="ScajvUw0fOYDPrXvx_VV-36" value="pumpControl_task" style="ellipse;whiteSpace=wrap;html=1;aspect=fixed;" vertex="1" parent="1">
          <mxGeometry x="750" y="466" width="110" height="110" as="geometry" />
        </mxCell>
        <mxCell id="ScajvUw0fOYDPrXvx_VV-37" value="waveControl_task" style="ellipse;whiteSpace=wrap;html=1;aspect=fixed;" vertex="1" parent="1">
          <mxGeometry x="750" y="226" width="110" height="110" as="geometry" />
        </mxCell>
        <mxCell id="ScajvUw0fOYDPrXvx_VV-38" value="" style="endArrow=classic;html=1;rounded=0;entryX=0;entryY=0.5;entryDx=0;entryDy=0;exitX=1;exitY=0.5;exitDx=0;exitDy=0;" edge="1" parent="1" source="ScajvUw0fOYDPrXvx_VV-2" target="ScajvUw0fOYDPrXvx_VV-20">
          <mxGeometry width="50" height="50" relative="1" as="geometry">
            <mxPoint x="390" y="460" as="sourcePoint" />
            <mxPoint x="440" y="410" as="targetPoint" />
            <Array as="points">
              <mxPoint x="540" y="400" />
              <mxPoint x="540" y="520" />
            </Array>
          </mxGeometry>
        </mxCell>
        <mxCell id="ScajvUw0fOYDPrXvx_VV-39" value="" style="endArrow=classic;html=1;rounded=0;entryX=0;entryY=0.5;entryDx=0;entryDy=0;exitX=1;exitY=0.5;exitDx=0;exitDy=0;" edge="1" parent="1" source="ScajvUw0fOYDPrXvx_VV-2" target="ScajvUw0fOYDPrXvx_VV-4">
          <mxGeometry width="50" height="50" relative="1" as="geometry">
            <mxPoint x="390" y="460" as="sourcePoint" />
            <mxPoint x="440" y="410" as="targetPoint" />
            <Array as="points">
              <mxPoint x="540" y="400" />
              <mxPoint x="540" y="281" />
            </Array>
          </mxGeometry>
        </mxCell>
        <mxCell id="ScajvUw0fOYDPrXvx_VV-40" value="" style="endArrow=classic;html=1;rounded=0;entryX=0;entryY=0.5;entryDx=0;entryDy=0;exitX=1;exitY=0.5;exitDx=0;exitDy=0;" edge="1" parent="1" source="ScajvUw0fOYDPrXvx_VV-4" target="ScajvUw0fOYDPrXvx_VV-37">
          <mxGeometry width="50" height="50" relative="1" as="geometry">
            <mxPoint x="390" y="460" as="sourcePoint" />
            <mxPoint x="440" y="410" as="targetPoint" />
          </mxGeometry>
        </mxCell>
        <mxCell id="ScajvUw0fOYDPrXvx_VV-41" value="" style="endArrow=classic;html=1;rounded=0;entryX=0;entryY=0.5;entryDx=0;entryDy=0;exitX=1;exitY=0.5;exitDx=0;exitDy=0;" edge="1" parent="1" source="ScajvUw0fOYDPrXvx_VV-20" target="ScajvUw0fOYDPrXvx_VV-36">
          <mxGeometry width="50" height="50" relative="1" as="geometry">
            <mxPoint x="390" y="460" as="sourcePoint" />
            <mxPoint x="440" y="410" as="targetPoint" />
          </mxGeometry>
        </mxCell>
      </root>
    </mxGraphModel>
  </diagram>
</mxfile>
